name rise49.25peak52.1432fall72.8391.mot
datacolumns 19
datarows 24
range 22.95991200000000 22.99824300000000
endheader
time	ground_force1_vx	ground_force1_vy	ground_force1_vz	ground_force1_px	ground_force1_py	ground_force1_pz	ground_force2_vx	ground_force2_vy	ground_force2_vz	ground_force2_px	ground_force2_py	ground_force2_pz	ground_torque1_x	ground_torque1_y	ground_torque1_z	ground_torque2_x	ground_torque2_y	ground_torque2_z	
22.95991200000000	16.53829600000000	705.68496200000004	36.92466300000000	0.25799500000000	0.00000000000000	0.09470100000000	0.00000000000000	0.00000000000000	0.00000000000000	0.00000000000000	0.00000000000000	0.00000000000000	0.00000000000000	15.62891600000000	0.00000000000000	0.00000000000000	0.00000000000000	0.00000000000000	
22.96157400000000	16.17467300000000	706.63484000000005	36.97682400000000	0.25748400000000	0.00000000000000	0.09467600000000	0.00000000000000	0.00000000000000	0.00000000000000	0.00000000000000	0.00000000000000	0.00000000000000	0.00000000000000	15.69198000000000	0.00000000000000	0.00000000000000	0.00000000000000	0.00000000000000	
22.96324900000000	15.80124900000000	707.60779500000001	37.03268200000000	0.25694900000000	0.00000000000000	0.09465300000000	0.00000000000000	0.00000000000000	0.00000000000000	0.00000000000000	0.00000000000000	0.00000000000000	0.00000000000000	15.75731200000000	0.00000000000000	0.00000000000000	0.00000000000000	0.00000000000000	
22.96491400000000	15.41787200000000	708.60211800000002	37.09194900000000	0.25638900000000	0.00000000000000	0.09463000000000	0.00000000000000	0.00000000000000	0.00000000000000	0.00000000000000	0.00000000000000	0.00000000000000	0.00000000000000	15.82473300000000	0.00000000000000	0.00000000000000	0.00000000000000	0.00000000000000	
22.96657500000000	15.02442500000000	709.61616700000002	37.15434300000000	0.25580100000000	0.00000000000000	0.09460800000000	0.00000000000000	0.00000000000000	0.00000000000000	0.00000000000000	0.00000000000000	0.00000000000000	0.00000000000000	15.89407100000000	0.00000000000000	0.00000000000000	0.00000000000000	0.00000000000000	
22.96824500000000	14.62081800000000	710.64837000000000	37.21958500000000	0.25518400000000	0.00000000000000	0.09458800000000	0.00000000000000	0.00000000000000	0.00000000000000	0.00000000000000	0.00000000000000	0.00000000000000	0.00000000000000	15.96516100000000	0.00000000000000	0.00000000000000	0.00000000000000	0.00000000000000	
22.96990700000000	14.20699300000000	711.69721800000002	37.28740200000000	0.25453600000000	0.00000000000000	0.09456900000000	0.00000000000000	0.00000000000000	0.00000000000000	0.00000000000000	0.00000000000000	0.00000000000000	0.00000000000000	16.03784500000000	0.00000000000000	0.00000000000000	0.00000000000000	0.00000000000000	
22.97157900000000	13.78292200000000	712.76127499999996	37.35752800000000	0.25385600000000	0.00000000000000	0.09455100000000	0.00000000000000	0.00000000000000	0.00000000000000	0.00000000000000	0.00000000000000	0.00000000000000	0.00000000000000	16.11197200000000	0.00000000000000	0.00000000000000	0.00000000000000	0.00000000000000	
22.97324600000000	13.34861100000000	713.83916999999997	37.42970500000000	0.25314300000000	0.00000000000000	0.09453400000000	0.00000000000000	0.00000000000000	0.00000000000000	0.00000000000000	0.00000000000000	0.00000000000000	0.00000000000000	16.18740200000000	0.00000000000000	0.00000000000000	0.00000000000000	0.00000000000000	
22.97490800000000	12.90409300000000	714.92960400000004	37.50367900000000	0.25239700000000	0.00000000000000	0.09451900000000	0.00000000000000	0.00000000000000	0.00000000000000	0.00000000000000	0.00000000000000	0.00000000000000	0.00000000000000	16.26400000000000	0.00000000000000	0.00000000000000	0.00000000000000	0.00000000000000	
22.97658000000000	12.44943400000000	716.03134399999999	37.57920800000000	0.25161600000000	0.00000000000000	0.09450500000000	0.00000000000000	0.00000000000000	0.00000000000000	0.00000000000000	0.00000000000000	0.00000000000000	0.00000000000000	16.34164200000000	0.00000000000000	0.00000000000000	0.00000000000000	0.00000000000000	
22.97824400000000	11.98472900000000	717.14322500000003	37.65605500000000	0.25080000000000	0.00000000000000	0.09449200000000	0.00000000000000	0.00000000000000	0.00000000000000	0.00000000000000	0.00000000000000	0.00000000000000	0.00000000000000	16.42021100000000	0.00000000000000	0.00000000000000	0.00000000000000	0.00000000000000	
22.97991300000000	11.51010300000000	718.26414799999998	37.73399400000000	0.24995000000000	0.00000000000000	0.09448100000000	0.00000000000000	0.00000000000000	0.00000000000000	0.00000000000000	0.00000000000000	0.00000000000000	0.00000000000000	16.49960100000000	0.00000000000000	0.00000000000000	0.00000000000000	0.00000000000000	
22.98157700000000	11.02571000000000	719.39308100000005	37.81280700000000	0.24906500000000	0.00000000000000	0.09447100000000	0.00000000000000	0.00000000000000	0.00000000000000	0.00000000000000	0.00000000000000	0.00000000000000	0.00000000000000	16.57971200000000	0.00000000000000	0.00000000000000	0.00000000000000	0.00000000000000	
22.98324400000000	10.53173400000000	720.52905499999997	37.89228700000000	0.24814500000000	0.00000000000000	0.09446300000000	0.00000000000000	0.00000000000000	0.00000000000000	0.00000000000000	0.00000000000000	0.00000000000000	0.00000000000000	16.66045600000000	0.00000000000000	0.00000000000000	0.00000000000000	0.00000000000000	
22.98491200000000	10.02838600000000	721.67116599999997	37.97223500000000	0.24719100000000	0.00000000000000	0.09445500000000	0.00000000000000	0.00000000000000	0.00000000000000	0.00000000000000	0.00000000000000	0.00000000000000	0.00000000000000	16.74175200000000	0.00000000000000	0.00000000000000	0.00000000000000	0.00000000000000	
22.98658100000000	9.51590200000000	722.81857000000002	38.05246300000000	0.24620300000000	0.00000000000000	0.09444900000000	0.00000000000000	0.00000000000000	0.00000000000000	0.00000000000000	0.00000000000000	0.00000000000000	0.00000000000000	16.82352800000000	0.00000000000000	0.00000000000000	0.00000000000000	0.00000000000000	
22.98824500000000	8.99454700000000	723.97048400000006	38.13279500000000	0.24518300000000	0.00000000000000	0.09444500000000	0.00000000000000	0.00000000000000	0.00000000000000	0.00000000000000	0.00000000000000	0.00000000000000	0.00000000000000	16.90571900000000	0.00000000000000	0.00000000000000	0.00000000000000	0.00000000000000	
22.98991100000000	8.46460900000000	725.12618299999997	38.21306400000000	0.24413200000000	0.00000000000000	0.09444100000000	0.00000000000000	0.00000000000000	0.00000000000000	0.00000000000000	0.00000000000000	0.00000000000000	0.00000000000000	16.98827000000000	0.00000000000000	0.00000000000000	0.00000000000000	0.00000000000000	
22.99157700000000	7.92640000000000	726.28499799999997	38.29311600000000	0.24305100000000	0.00000000000000	0.09443800000000	0.00000000000000	0.00000000000000	0.00000000000000	0.00000000000000	0.00000000000000	0.00000000000000	0.00000000000000	17.07113300000000	0.00000000000000	0.00000000000000	0.00000000000000	0.00000000000000	
22.99324200000000	7.38025600000000	727.44631600000002	38.37280700000000	0.24194100000000	0.00000000000000	0.09443700000000	0.00000000000000	0.00000000000000	0.00000000000000	0.00000000000000	0.00000000000000	0.00000000000000	0.00000000000000	17.15426700000000	0.00000000000000	0.00000000000000	0.00000000000000	0.00000000000000	
22.99491200000000	6.82653200000000	728.60957499999995	38.45200600000000	0.24080400000000	0.00000000000000	0.09443600000000	0.00000000000000	0.00000000000000	0.00000000000000	0.00000000000000	0.00000000000000	0.00000000000000	0.00000000000000	17.23763900000000	0.00000000000000	0.00000000000000	0.00000000000000	0.00000000000000	
22.99658000000000	6.26560400000000	729.77426500000001	38.53059300000000	0.23964200000000	0.00000000000000	0.09443600000000	0.00000000000000	0.00000000000000	0.00000000000000	0.00000000000000	0.00000000000000	0.00000000000000	0.00000000000000	17.32122000000000	0.00000000000000	0.00000000000000	0.00000000000000	0.00000000000000	
22.99824300000000	5.69786600000000	730.93992500000002	38.60846000000000	0.23845700000000	0.00000000000000	0.09443700000000	0.00000000000000	0.00000000000000	0.00000000000000	0.00000000000000	0.00000000000000	0.00000000000000	0.00000000000000	17.40498900000000	0.00000000000000	0.00000000000000	0.00000000000000	0.00000000000000	
